<?xml version="1.0" encoding="utf-8"?>
<!-- Generator: Adobe Illustrator 27.1.1, SVG Export Plug-In . SVG Version: 6.00 Build 0)  -->
<svg version="1.1" id="Layer_1" xmlns="http://www.w3.org/2000/svg" xmlns:xlink="http://www.w3.org/1999/xlink" x="0px" y="0px"
	 viewBox="0 0 512 512" style="enable-background:new 0 0 512 512;" xml:space="preserve">
<style type="text/css">
	.st0{fill-rule:evenodd;clip-rule:evenodd;fill:#1DEBC4;}
	.st1{fill:#1DEBC4;}
</style>
<g>
	<path class="st0" d="M91.8,60.5h325.5c18,0,32.7,14.7,32.7,32.7v325.7c0,18-14.7,32.7-32.7,32.7H91.8c-18.1,0-32.8-14.7-32.8-32.7
		V93.2C59,75.2,73.7,60.5,91.8,60.5L91.8,60.5z"/>
</g>
<g>
	<g>
		<path d="M284.6,321.5h-24v-90.7c0-4.1,0.1-8.6,0.3-13.6c0.2-4.9,0.5-10.2,0.9-15.7h-0.7c-0.8,3.9-1.5,7.1-2.2,9.9
			c-0.7,2.7-1.4,4.9-2,6.6l-41.4,103.5h-16.9L157,218.8c-0.5-1.5-1.2-3.6-1.9-6.5c-0.8-2.9-1.5-6.4-2.3-10.8H152
			c0.4,5,0.7,10.2,0.8,15.5c0.2,5.4,0.2,11,0.2,16.8v87.6h-22.4V178.7H165l36.6,92.3c1.5,3.5,2.7,6.7,3.6,9.7c1,3,1.7,5.8,2.2,8.4
			h0.6c1.2-3.8,2.3-7.3,3.4-10.4c1.1-3.1,2-5.7,2.9-8l37-92h33.3V321.5z"/>
		<path d="M401,321.5h-79.5V178.7h24.2v122.4H401V321.5z"/>
	</g>
</g>
<path class="st1" d="M425.3,511.1c-5.1,0-9.3-4.1-9.3-9.3v-39.6h-37.9v39.6c0,5.1-4.1,9.3-9.3,9.3c-5.1,0-9.3-4.1-9.3-9.3v-39.6
	h-37.8v39.6c0,5.1-4.1,9.3-9.3,9.3c-5.1,0-9.3-4.1-9.3-9.3v-39.6h-37.9v39.6c0,5.1-4.1,9.3-9.3,9.3c-5.1,0-9.3-4.1-9.3-9.3v-39.6
	h-37.6v39.6c0,5.1-4.1,9.3-9.3,9.3c-5.1,0-9.3-4.1-9.3-9.3v-39.6h-37.8v39.6c0,5.1-4.1,9.3-9.3,9.3c-5.1,0-9.3-4.1-9.3-9.3v-39.6
	H96.4v39.6c0,5.1-4.1,9.3-9.3,9.3c-5.1,0-9.3-4.1-9.3-9.3v-39.6c-15.3-0.7-27.6-13-28.3-28.3H9.3c-5.1,0-9.3-4.1-9.3-9.3
	s4.1-9.3,9.3-9.3h40.4v-37.8H9.3c-5.1,0-9.3-4.1-9.3-9.3c0-5.1,4.1-9.3,9.3-9.3h40.4v-37.9H9.3c-5.1,0-9.3-4.1-9.3-9.3
	c0-5.1,4.1-9.3,9.3-9.3h40.4V265H9.3c-5.1,0-9.3-4.1-9.3-9.3c0-5.1,4.1-9.3,9.3-9.3h40.4v-37.8H9.3c-5.1,0-9.3-4.1-9.3-9.3
	s4.1-9.3,9.3-9.3h40.4v-37.9H9.3c-5.1,0-9.3-4.1-9.3-9.3s4.1-9.3,9.3-9.3h40.4V95.8H9.3c-5.1,0-9.3-4.1-9.3-9.3s4.1-9.3,9.3-9.3
	h40.4C50.3,62,62.6,49.7,77.9,49V10.2c0-5.1,4.1-9.3,9.3-9.3c5.1,0,9.3,4.1,9.3,9.3V49h37.9V10.2c0-5.1,4.1-9.3,9.3-9.3
	c5.1,0,9.3,4.1,9.3,9.3V49h37.8V10.2c0-5.1,4.1-9.3,9.3-9.3c5.1,0,9.3,4.1,9.3,9.3V49h37.6V10.2c0-5.1,4.1-9.3,9.3-9.3
	c5.1,0,9.3,4.1,9.3,9.3V49h37.9V10.2c0-5.1,4.1-9.3,9.3-9.3c5.1,0,9.3,4.1,9.3,9.3V49h37.8V10.2c0-5.1,4.1-9.3,9.3-9.3
	c5.1,0,9.3,4.1,9.3,9.3V49H416V10.2c0-5.1,4.1-9.3,9.3-9.3s9.3,4.1,9.3,9.3V49c15.3,0.7,27.6,13,28.3,28.3h39.9
	c5.1,0,9.3,4.1,9.3,9.3c0,5.1-4.1,9.3-9.3,9.3h-39.9v37.9h39.9c5.1,0,9.3,4.1,9.3,9.3s-4.1,9.3-9.3,9.3h-39.9v37.9h39.9
	c5.1,0,9.3,4.1,9.3,9.3s-4.1,9.3-9.3,9.3h-39.9v37.6h39.9c5.1,0,9.3,4.1,9.3,9.3c0,5.1-4.1,9.3-9.3,9.3h-39.9v37.8h39.9
	c5.1,0,9.3,4.1,9.3,9.3c0,5.1-4.1,9.3-9.3,9.3h-39.9V359h39.9c5.1,0,9.3,4.1,9.3,9.3c0,5.1-4.1,9.3-9.3,9.3h-39.9v37.8h39.9
	c5.1,0,9.3,4.1,9.3,9.3s-4.1,9.3-9.3,9.3h-39.9c-0.7,15.3-13,27.6-28.3,28.3v39.6C434.6,506.9,430.4,511.1,425.3,511.1L425.3,511.1z
	 M79.2,67.5c-6.1,0-11.1,5-11.1,11.1v354c0,6.1,5,11.1,11.1,11.1h354c6.1,0,11.1-5,11.1-11.1v-354c0-6.1-5-11.1-11.1-11.1L79.2,67.5
	z"/>
</svg>
